<svg width="24" height="24" viewBox="0 0 24 24" fill="none" xmlns="http://www.w3.org/2000/svg">
<g id="ic:outline-shopping-cart">
<path id="Vector" d="M15.55 13C16.3 13 16.96 12.59 17.3 11.97L20.88 5.48C20.9643 5.32843 21.0076 5.15747 21.0055 4.98406C21.0034 4.81064 20.9561 4.64077 20.8682 4.49126C20.7803 4.34175 20.6549 4.21778 20.5044 4.13162C20.3539 4.04545 20.1835 4.00009 20.01 4H5.21003L4.27003 2C4.27003 2 1.99998 2 1.00003 2C7.19428e-05 2 6.10352e-05 4 1.00003 4C2 4 3.00003 4 3.00003 4L6.60003 11.59L5.25003 14.03C4.52003 15.37 5.48003 17 7.00003 17C7.00003 17 18 17 19 17C20.0001 17 20.0001 15 19 15C18 15 7.00003 15 7.00003 15L8.10003 13H15.55ZM6.16003 6H18.31L15.55 11H8.53003L6.16003 6ZM7.00003 18C5.90003 18 5.01003 18.9 5.01003 20C5.01003 21.1 5.90003 22 7.00003 22C8.10003 22 9.00003 21.1 9.00003 20C9.00003 18.9 8.10003 18 7.00003 18ZM17 18C15.9 18 15.01 18.9 15.01 20C15.01 21.1 15.9 22 17 22C18.1 22 19 21.1 19 20C19 18.9 18.1 18 17 18Z" fill="#122025"/>
</g>
</svg>
