<svg width="222" height="77" viewBox="0 0 222 77" fill="none" xmlns="http://www.w3.org/2000/svg">
<rect x="31" y="27" width="19" height="23" fill="#122025"/>
<g filter="url(#filter0_d_1_38)">
<path d="M39 17.125C26.9199 17.125 17.125 26.9199 17.125 39C17.125 51.0801 26.9199 60.875 39 60.875C51.0801 60.875 60.875 51.0801 60.875 39C60.875 26.9199 51.0801 17.125 39 17.125ZM46.0361 39.3369L35.3721 47.0957C35.3136 47.1377 35.2447 47.1628 35.1729 47.1682C35.1011 47.1736 35.0292 47.1591 34.9651 47.1263C34.9011 47.0935 34.8472 47.0437 34.8096 46.9823C34.772 46.9209 34.7521 46.8503 34.752 46.7783V31.2705C34.7517 31.1984 34.7715 31.1276 34.809 31.066C34.8465 31.0044 34.9004 30.9544 34.9646 30.9215C35.0288 30.8886 35.1009 30.8742 35.1728 30.8798C35.2447 30.8854 35.3137 30.9107 35.3721 30.9531L46.0361 38.707C46.0865 38.7427 46.1276 38.7899 46.156 38.8447C46.1843 38.8995 46.1991 38.9603 46.1991 39.022C46.1991 39.0837 46.1843 39.1445 46.156 39.1993C46.1276 39.2541 46.0865 39.3013 46.0361 39.3369Z" fill="#FBFDFD"/>
</g>
<path d="M38.5 8.6999C38.5 6.6565 36.8385 4.97888 34.8076 5.20411C31.6759 5.55141 28.6026 6.33952 25.6801 7.55004C21.6157 9.23357 17.9227 11.7012 14.8119 14.8119C11.7012 17.9227 9.23357 21.6157 7.55004 25.6801C5.8665 29.7445 5 34.1007 5 38.5C5 42.8993 5.8665 47.2555 7.55004 51.3199C9.23357 55.3843 11.7012 59.0773 14.8119 62.1881C17.9227 65.2988 21.6157 67.7664 25.6801 69.45C28.6026 70.6605 31.6759 71.4486 34.8076 71.7959C36.8385 72.0211 38.5 70.3435 38.5 68.3001C38.5 66.2567 36.8354 64.6271 34.8124 64.3384C32.6531 64.0302 30.5361 63.4519 28.5119 62.6134C25.3453 61.3018 22.468 59.3792 20.0444 56.9556C17.6208 54.532 15.6982 51.6547 14.3866 48.4881C13.0749 45.3215 12.3998 41.9275 12.3998 38.5C12.3998 35.0725 13.0749 31.6785 14.3866 28.5119C15.6982 25.3453 17.6207 22.468 20.0444 20.0444C22.468 17.6207 25.3453 15.6982 28.5119 14.3866C30.5361 13.5481 32.6531 12.9698 34.8124 12.6616C36.8353 12.3729 38.5 10.7433 38.5 8.6999Z" fill="#F2C229"/>
<path d="M106.34 32L101.7 46H98.94L95.48 35.64L91.96 46H89.18L84.54 32H87.24L90.72 42.64L94.34 32H96.74L100.28 42.7L103.86 32H106.34ZM111.497 35.2C113.071 35.2 114.271 35.58 115.097 36.34C115.937 37.0867 116.357 38.22 116.357 39.74V46H113.997V44.7C113.691 45.1667 113.251 45.5267 112.677 45.78C112.117 46.02 111.437 46.14 110.637 46.14C109.837 46.14 109.137 46.0067 108.537 45.74C107.937 45.46 107.471 45.08 107.137 44.6C106.817 44.1067 106.657 43.5533 106.657 42.94C106.657 41.98 107.011 41.2133 107.717 40.64C108.437 40.0533 109.564 39.76 111.097 39.76H113.857V39.6C113.857 38.8533 113.631 38.28 113.177 37.88C112.737 37.48 112.077 37.28 111.197 37.28C110.597 37.28 110.004 37.3733 109.417 37.56C108.844 37.7467 108.357 38.0067 107.957 38.34L106.977 36.52C107.537 36.0933 108.211 35.7667 108.997 35.54C109.784 35.3133 110.617 35.2 111.497 35.2ZM111.157 44.32C111.784 44.32 112.337 44.18 112.817 43.9C113.311 43.6067 113.657 43.1933 113.857 42.66V41.42H111.277C109.837 41.42 109.117 41.8933 109.117 42.84C109.117 43.2933 109.297 43.6533 109.657 43.92C110.017 44.1867 110.517 44.32 111.157 44.32ZM125.986 45.42C125.692 45.66 125.332 45.84 124.906 45.96C124.492 46.08 124.052 46.14 123.586 46.14C122.412 46.14 121.506 45.8333 120.866 45.22C120.226 44.6067 119.906 43.7133 119.906 42.54V37.4H118.146V35.4H119.906V32.96H122.406V35.4H125.266V37.4H122.406V42.48C122.406 43 122.532 43.4 122.786 43.68C123.039 43.9467 123.406 44.08 123.886 44.08C124.446 44.08 124.912 43.9333 125.286 43.64L125.986 45.42ZM132.591 46.14C131.484 46.14 130.491 45.9067 129.611 45.44C128.731 44.9733 128.044 44.3267 127.551 43.5C127.057 42.66 126.811 41.7133 126.811 40.66C126.811 39.6067 127.057 38.6667 127.551 37.84C128.044 37.0133 128.724 36.3667 129.591 35.9C130.471 35.4333 131.471 35.2 132.591 35.2C133.644 35.2 134.564 35.4133 135.351 35.84C136.151 36.2667 136.751 36.88 137.151 37.68L135.231 38.8C134.924 38.3067 134.537 37.94 134.071 37.7C133.617 37.4467 133.117 37.32 132.571 37.32C131.637 37.32 130.864 37.6267 130.251 38.24C129.637 38.84 129.331 39.6467 129.331 40.66C129.331 41.6733 129.631 42.4867 130.231 43.1C130.844 43.7 131.624 44 132.571 44C133.117 44 133.617 43.88 134.071 43.64C134.537 43.3867 134.924 43.0133 135.231 42.52L137.151 43.64C136.737 44.44 136.131 45.06 135.331 45.5C134.544 45.9267 133.631 46.14 132.591 46.14ZM145.274 35.2C146.621 35.2 147.701 35.5933 148.514 36.38C149.328 37.1667 149.734 38.3333 149.734 39.88V46H147.234V40.2C147.234 39.2667 147.014 38.5667 146.574 38.1C146.134 37.62 145.508 37.38 144.694 37.38C143.774 37.38 143.048 37.66 142.514 38.22C141.981 38.7667 141.714 39.56 141.714 40.6V46H139.214V31.16H141.714V36.56C142.128 36.12 142.634 35.7867 143.234 35.56C143.848 35.32 144.528 35.2 145.274 35.2ZM171.473 32L165.373 46H162.813L156.693 32H159.513L164.173 42.8L168.873 32H171.473ZM172.808 35.32H175.308V46H172.808V35.32ZM174.068 33.56C173.615 33.56 173.235 33.42 172.928 33.14C172.621 32.8467 172.468 32.4867 172.468 32.06C172.468 31.6333 172.621 31.28 172.928 31C173.235 30.7067 173.615 30.56 174.068 30.56C174.521 30.56 174.901 30.7 175.208 30.98C175.515 31.2467 175.668 31.5867 175.668 32C175.668 32.44 175.515 32.8133 175.208 33.12C174.915 33.4133 174.535 33.56 174.068 33.56ZM189.049 31.16V46H186.649V44.62C186.236 45.1267 185.723 45.5067 185.109 45.76C184.509 46.0133 183.843 46.14 183.109 46.14C182.083 46.14 181.156 45.9133 180.329 45.46C179.516 45.0067 178.876 44.3667 178.409 43.54C177.943 42.7 177.709 41.74 177.709 40.66C177.709 39.58 177.943 38.6267 178.409 37.8C178.876 36.9733 179.516 36.3333 180.329 35.88C181.156 35.4267 182.083 35.2 183.109 35.2C183.816 35.2 184.463 35.32 185.049 35.56C185.636 35.8 186.136 36.16 186.549 36.64V31.16H189.049ZM183.409 44C184.009 44 184.549 43.8667 185.029 43.6C185.509 43.32 185.889 42.9267 186.169 42.42C186.449 41.9133 186.589 41.3267 186.589 40.66C186.589 39.9933 186.449 39.4067 186.169 38.9C185.889 38.3933 185.509 38.0067 185.029 37.74C184.549 37.46 184.009 37.32 183.409 37.32C182.809 37.32 182.269 37.46 181.789 37.74C181.309 38.0067 180.929 38.3933 180.649 38.9C180.369 39.4067 180.229 39.9933 180.229 40.66C180.229 41.3267 180.369 41.9133 180.649 42.42C180.929 42.9267 181.309 43.32 181.789 43.6C182.269 43.8667 182.809 44 183.409 44ZM202.36 40.72C202.36 40.8933 202.346 41.14 202.32 41.46H193.94C194.086 42.2467 194.466 42.8733 195.08 43.34C195.706 43.7933 196.48 44.02 197.4 44.02C198.573 44.02 199.54 43.6333 200.3 42.86L201.64 44.4C201.16 44.9733 200.553 45.4067 199.82 45.7C199.086 45.9933 198.26 46.14 197.34 46.14C196.166 46.14 195.133 45.9067 194.24 45.44C193.346 44.9733 192.653 44.3267 192.16 43.5C191.68 42.66 191.44 41.7133 191.44 40.66C191.44 39.62 191.673 38.6867 192.14 37.86C192.62 37.02 193.28 36.3667 194.12 35.9C194.96 35.4333 195.906 35.2 196.96 35.2C198 35.2 198.926 35.4333 199.74 35.9C200.566 36.3533 201.206 37 201.66 37.84C202.126 38.6667 202.36 39.6267 202.36 40.72ZM196.96 37.2C196.16 37.2 195.48 37.44 194.92 37.92C194.373 38.3867 194.04 39.0133 193.92 39.8H199.98C199.873 39.0267 199.546 38.4 199 37.92C198.453 37.44 197.773 37.2 196.96 37.2ZM209.561 46.14C208.481 46.14 207.508 45.9067 206.641 45.44C205.774 44.9733 205.094 44.3267 204.601 43.5C204.121 42.66 203.881 41.7133 203.881 40.66C203.881 39.6067 204.121 38.6667 204.601 37.84C205.094 37.0133 205.774 36.3667 206.641 35.9C207.508 35.4333 208.481 35.2 209.561 35.2C210.654 35.2 211.634 35.4333 212.501 35.9C213.368 36.3667 214.041 37.0133 214.521 37.84C215.014 38.6667 215.261 39.6067 215.261 40.66C215.261 41.7133 215.014 42.66 214.521 43.5C214.041 44.3267 213.368 44.9733 212.501 45.44C211.634 45.9067 210.654 46.14 209.561 46.14ZM209.561 44C210.481 44 211.241 43.6933 211.841 43.08C212.441 42.4667 212.741 41.66 212.741 40.66C212.741 39.66 212.441 38.8533 211.841 38.24C211.241 37.6267 210.481 37.32 209.561 37.32C208.641 37.32 207.881 37.6267 207.281 38.24C206.694 38.8533 206.401 39.66 206.401 40.66C206.401 41.66 206.694 42.4667 207.281 43.08C207.881 43.6933 208.641 44 209.561 44Z" fill="#122025"/>
<defs>
<filter id="filter0_d_1_38" x="13.125" y="17.125" width="51.75" height="51.75" filterUnits="userSpaceOnUse" color-interpolation-filters="sRGB">
<feFlood flood-opacity="0" result="BackgroundImageFix"/>
<feColorMatrix in="SourceAlpha" type="matrix" values="0 0 0 0 0 0 0 0 0 0 0 0 0 0 0 0 0 0 127 0" result="hardAlpha"/>
<feOffset dy="4"/>
<feGaussianBlur stdDeviation="2"/>
<feComposite in2="hardAlpha" operator="out"/>
<feColorMatrix type="matrix" values="0 0 0 0 0 0 0 0 0 0 0 0 0 0 0 0 0 0 0.15 0"/>
<feBlend mode="normal" in2="BackgroundImageFix" result="effect1_dropShadow_1_38"/>
<feBlend mode="normal" in="SourceGraphic" in2="effect1_dropShadow_1_38" result="shape"/>
</filter>
</defs>
</svg>
